<svg xmlns="http://www.w3.org/2000/svg" viewBox="0 0 176 176" role="img" aria-label="Illustratie van Deniz Kaya">
  <rect width="176" height="176" fill="#FBDDE2"/>
  <path d="M26 176c4-36 30-54 62-54s58 18 62 54z" fill="#9F1239"/>
  <rect x="76" y="94" width="24" height="28" rx="10" fill="#C08850"/>
  <circle cx="88" cy="72" r="34" fill="#D9A066"/>
  <path d="M54 68c1-20 15-32 34-32s33 12 34 32c-3-6-8-9-12-14-9 5-35 6-44 0-5 5-9 8-12 14z" fill="#1F1B16"/>
  <path d="M62 84c2 16 12 24 26 24s24-8 26-24c-2 10-6 14-10 16-8 4-24 4-32 0-4-2-8-6-10-16z" fill="#1F1B16"/>
  <circle cx="75" cy="74" r="3.4" fill="#1F1B16"/>
  <circle cx="101" cy="74" r="3.4" fill="#1F1B16"/>
  <path d="M81 93c4 3 10 3 14 0" stroke="#F3C29E" stroke-width="2.5" stroke-linecap="round" fill="none"/>
</svg>
