<svg xmlns="http://www.w3.org/2000/svg" viewBox="0 0 176 176" role="img" aria-label="Illustratie van Ruben van Leeuwen">
  <rect width="176" height="176" fill="#D6E4FF"/>
  <path d="M26 176c4-36 30-54 62-54s58 18 62 54z" fill="#1D4ED8"/>
  <rect x="76" y="94" width="24" height="28" rx="10" fill="#D19A6E"/>
  <circle cx="88" cy="72" r="34" fill="#E8B48C"/>
  <path d="M54 68c1-20 15-32 34-32s33 12 34 32c-3-6-8-9-12-14-9 5-35 6-44 0-5 5-9 8-12 14z" fill="#2B2118"/>
  <circle cx="75" cy="74" r="3.4" fill="#2B2118"/>
  <circle cx="101" cy="74" r="3.4" fill="#2B2118"/>
  <path d="M80 92c5 4 11 4 16 0" stroke="#7A4A28" stroke-width="2.5" stroke-linecap="round" fill="none"/>
</svg>
