<svg xmlns="http://www.w3.org/2000/svg" viewBox="0 0 176 176" role="img" aria-label="Illustratie van Annemieke Verhoef">
  <rect width="176" height="176" fill="#FDE8C8"/>
  <path d="M26 176c4-36 30-54 62-54s58 18 62 54z" fill="#B45309"/>
  <rect x="76" y="94" width="24" height="28" rx="10" fill="#DFA97F"/>
  <circle cx="88" cy="72" r="34" fill="#F3C29E"/>
  <path d="M54 70c0-22 15-36 34-36s34 14 34 36c0-8-6-12-10-20-8 6-38 8-48 2-4 6-10 10-10 18z" fill="#6B4A35"/>
  <circle cx="74" cy="74" r="9" fill="none" stroke="#3D3D5C" stroke-width="2.5"/>
  <circle cx="102" cy="74" r="9" fill="none" stroke="#3D3D5C" stroke-width="2.5"/>
  <path d="M83 74h10" stroke="#3D3D5C" stroke-width="2.5"/>
  <path d="M80 92c5 4 11 4 16 0" stroke="#8A5A3B" stroke-width="2.5" stroke-linecap="round" fill="none"/>
</svg>
