<svg xmlns="http://www.w3.org/2000/svg" viewBox="0 0 176 176" role="img" aria-label="Illustratie van Marije de Wit">
  <rect width="176" height="176" fill="#EADDF7"/>
  <path d="M26 176c4-36 30-54 62-54s58 18 62 54z" fill="#6D28D9"/>
  <rect x="76" y="94" width="24" height="28" rx="10" fill="#E0AE85"/>
  <circle cx="88" cy="72" r="34" fill="#F3C9A8"/>
  <path d="M52 82c-2-26 14-44 36-44s38 18 36 44c-2 8-8 10-8 10 2-12-2-20-4-26-8 6-38 8-48 2-2 6-6 14-4 24 0 0-6-2-8-10z" fill="#B9B3C4"/>
  <circle cx="75" cy="74" r="3.4" fill="#2B2118"/>
  <circle cx="101" cy="74" r="3.4" fill="#2B2118"/>
  <path d="M80 92c5 4 11 4 16 0" stroke="#8A5A3B" stroke-width="2.5" stroke-linecap="round" fill="none"/>
</svg>
